<svg width="53" height="46" viewBox="0 0 53 46" fill="none" xmlns="http://www.w3.org/2000/svg">
<path d="M29.0443 20.3078L28.8004 20.4278C28.7469 20.4562 28.7019 20.4983 28.6699 20.5496C28.6378 20.601 28.6199 20.6599 28.6179 20.7205V21.4365C28.6145 21.4598 28.6178 21.4836 28.6274 21.505C28.6371 21.5265 28.6527 21.5447 28.6725 21.5576C28.6922 21.5704 28.7152 21.5773 28.7387 21.5775C28.7623 21.5776 28.7853 21.571 28.8052 21.5584L29.0443 21.4414C29.0984 21.4136 29.1441 21.3718 29.1765 21.3203C29.2089 21.2688 29.2269 21.2095 29.2286 21.1487V20.4327C29.2316 20.4094 29.228 20.3858 29.2184 20.3645C29.2087 20.3431 29.1933 20.3249 29.1739 20.3118C29.1545 20.2986 29.1319 20.2911 29.1085 20.2901C29.0851 20.289 29.0618 20.2945 29.0413 20.3058L29.0443 20.3078ZM27.9526 20.8629L27.7117 20.978C27.6578 21.0063 27.6124 21.0482 27.5799 21.0996C27.5474 21.1509 27.5289 21.2099 27.5263 21.2707V21.9896C27.5226 22.0131 27.5256 22.0371 27.5351 22.0589C27.5445 22.0807 27.56 22.0993 27.5796 22.1126C27.5993 22.1259 27.6223 22.1334 27.6461 22.134C27.6698 22.1347 27.6932 22.1286 27.7136 22.1165L27.9526 21.9965C28.0075 21.9693 28.0539 21.9277 28.087 21.8762C28.12 21.8246 28.1383 21.765 28.1399 21.7038V20.9878C28.143 20.9643 28.1393 20.9404 28.1293 20.9189C28.1193 20.8974 28.1034 20.8792 28.0835 20.8664C28.0635 20.8536 28.0404 20.8468 28.0167 20.8467C27.993 20.8466 27.9698 20.8532 27.9497 20.8658L27.9526 20.8629ZM26.3244 21.6814L26.0815 21.8014C26.0274 21.8293 25.9817 21.8711 25.9491 21.9225C25.9165 21.974 25.8982 22.0332 25.8962 22.094V22.8101C25.8925 22.8335 25.8955 22.8575 25.9051 22.8792C25.9146 22.9009 25.9301 22.9194 25.9498 22.9325C25.9695 22.9457 25.9926 22.9529 26.0163 22.9533C26.04 22.9537 26.0633 22.9474 26.0835 22.9349L26.3244 22.815C26.3775 22.7872 26.4224 22.746 26.4545 22.6955C26.4867 22.645 26.5051 22.587 26.5078 22.5272V21.8111C26.5078 21.696 26.423 21.6394 26.3225 21.6833L26.3244 21.6814ZM25.2308 22.2365L24.9918 22.3535C24.9373 22.3812 24.8912 22.4229 24.8583 22.4743C24.8254 22.5258 24.8068 22.5851 24.8045 22.6462V23.3642C24.8004 23.3885 24.8035 23.4136 24.8135 23.4361C24.8235 23.4587 24.84 23.4779 24.8608 23.4912C24.8816 23.5045 24.9058 23.5114 24.9305 23.511C24.9552 23.5106 24.9792 23.503 24.9996 23.4891L25.2386 23.372C25.2924 23.3437 25.3379 23.3018 25.3704 23.2504C25.4029 23.1991 25.4214 23.1401 25.424 23.0793V22.3633C25.4277 22.3396 25.4245 22.3153 25.4148 22.2933C25.4051 22.2713 25.3892 22.2526 25.3692 22.2395C25.3491 22.2263 25.3256 22.2192 25.3016 22.219C25.2776 22.2188 25.254 22.2255 25.2338 22.2384L25.2308 22.2365ZM23.6514 22.9515L23.4075 23.0715C23.3533 23.0993 23.3076 23.1411 23.275 23.1926C23.2424 23.2441 23.2242 23.3033 23.2222 23.3642V24.0802C23.219 24.1036 23.2225 24.1273 23.2323 24.1487C23.2421 24.1701 23.2578 24.1882 23.2776 24.201C23.2973 24.2138 23.3203 24.2207 23.3439 24.2209C23.3674 24.2211 23.3905 24.2146 23.4105 24.2022L23.6514 24.0871C23.7054 24.059 23.7509 24.0172 23.7833 23.9657C23.8157 23.9143 23.8338 23.8552 23.8358 23.7944V23.0784C23.8358 22.9632 23.7509 22.9067 23.6485 22.9515H23.6514ZM22.5598 23.5066L22.3188 23.6237C22.2643 23.6514 22.2181 23.693 22.185 23.7445C22.1519 23.7959 22.1331 23.8552 22.1305 23.9163V24.6324C22.1272 24.656 22.1307 24.6801 22.1405 24.7018C22.1504 24.7235 22.1662 24.742 22.1861 24.7551C22.206 24.7682 22.2293 24.7753 22.2531 24.7757C22.277 24.7761 22.3004 24.7697 22.3208 24.7573L22.5598 24.6402C22.614 24.6124 22.6597 24.5706 22.6923 24.5191C22.7249 24.4677 22.7432 24.4084 22.7451 24.3475V23.6344C22.7488 23.611 22.7458 23.587 22.7362 23.5653C22.7267 23.5436 22.7112 23.5251 22.6915 23.512C22.6718 23.4988 22.6487 23.4916 22.625 23.4912C22.6013 23.4908 22.578 23.4971 22.5578 23.5095L22.5598 23.5066ZM20.8555 24.2656L20.6116 24.3846C20.5575 24.4125 20.5118 24.4543 20.4792 24.5058C20.4466 24.5572 20.4283 24.6164 20.4263 24.6773V25.3933C20.4224 25.4167 20.4254 25.4408 20.4349 25.4625C20.4445 25.4842 20.4601 25.5026 20.48 25.5156C20.4999 25.5285 20.5231 25.5354 20.5468 25.5353C20.5706 25.5353 20.5938 25.5283 20.6136 25.5153L20.8555 25.3982C20.9094 25.3701 20.9548 25.3282 20.9872 25.2768C21.0196 25.2254 21.0378 25.1663 21.0399 25.1055V24.3895C21.0432 24.3661 21.0399 24.3423 21.0303 24.3208C21.0208 24.2992 21.0054 24.2808 20.9858 24.2676C20.9663 24.2543 20.9435 24.2469 20.9199 24.246C20.8964 24.2451 20.873 24.2509 20.8526 24.2627L20.8555 24.2656ZM19.7639 24.8187L19.5268 24.9348C19.4729 24.963 19.4273 25.0048 19.3948 25.0562C19.3622 25.1076 19.3438 25.1667 19.3415 25.2275V25.9465C19.338 25.9699 19.3413 25.9938 19.351 26.0155C19.3606 26.0371 19.3763 26.0555 19.396 26.0686C19.4157 26.0817 19.4388 26.0889 19.4625 26.0894C19.4861 26.0899 19.5095 26.0836 19.5297 26.0713L19.7687 25.9533C19.8232 25.9258 19.8691 25.8841 19.9015 25.8325C19.934 25.781 19.9519 25.7216 19.9531 25.6606V24.9426C19.9564 24.9194 19.953 24.8957 19.9433 24.8743C19.9336 24.8529 19.918 24.8347 19.8984 24.8218C19.8788 24.809 19.8559 24.8019 19.8324 24.8015C19.8089 24.8012 19.7858 24.8075 19.7658 24.8197L19.7639 24.8187ZM21.4145 26.7162C18.6049 27.8673 14.2559 29.7004 12.2639 29.6818C11.971 29.6834 11.6789 29.6507 11.3937 29.5843C11.3498 30.1335 11.6532 30.3423 11.9292 30.3881C17.0665 31.2447 26.5849 27.2976 32.3514 23.8178C35.8633 21.6999 37.0545 19.5039 37.1832 18.0621C35.4595 20.5331 32.7572 22.0696 21.4145 26.7171V26.7162ZM24.0143 16.8758C23.9407 16.9432 23.8536 16.9941 23.7587 17.0251C23.2612 17.1909 22.6759 16.7812 22.4525 16.109C22.4242 16.0183 22.402 15.9257 22.3861 15.832V15.8437C20.7004 16.8046 19.9473 16.8729 19.6117 16.7675C19.4019 17.4504 18.5171 18.8454 17.5913 19.4991C19.0751 19.384 23.7119 17.4212 24.0143 16.8836V16.8758ZM23.7217 16.4632C24.0143 16.3656 24.7431 15.5852 24.6094 15.1823C24.4758 14.7794 23.5363 14.9237 23.2436 15.0213C22.951 15.1189 22.8612 15.5003 22.9949 15.8993C23.1285 16.2983 23.431 16.5588 23.7256 16.4612L23.7217 16.4632ZM31.0383 18.6562C32.0138 18.3304 33.4186 17.9099 33.842 17.8611C33.4048 17.7912 32.9642 17.7446 32.5221 17.7216C31.4646 17.6826 31.0763 17.9616 31.0763 17.9616C31.0763 17.9616 30.8812 18.7089 31.0383 18.6562ZM37.7071 21.1555C37.6874 21.0932 37.6717 21.0297 37.6603 20.9653V20.9702C37.3064 21.1787 36.9353 21.3565 36.5511 21.5019C36.0097 22.1847 34.8731 23.1388 34.3385 23.4969C35.3638 23.4159 38.5705 22.0618 38.7802 21.6882C38.7293 21.7328 38.6694 21.766 38.6046 21.7858C38.2612 21.9028 37.8574 21.6199 37.7013 21.1546L37.7071 21.1555ZM38.6593 21.3565C38.4573 21.4248 38.2476 21.2414 38.1529 20.9663C38.0583 20.6912 38.1237 20.4229 38.3276 20.3575C38.5315 20.2922 39.1831 20.1956 39.2729 20.4697C39.3626 20.7439 38.8641 21.2863 38.6593 21.3546V21.3565Z" fill="#2A75DB"/>
<path d="M39.6232 22.6618C40.1188 22.174 40.2846 21.2638 39.9851 20.3624C39.632 19.3079 38.7667 18.6299 37.9716 18.7401C38.0107 18.5129 38.0004 18.28 37.9414 18.0572C37.877 17.8153 37.7638 17.2855 37.1024 17.2992C36.441 17.3129 34.0528 17.4016 33.9631 17.3968C33.8733 17.3919 32.371 17.0768 31.2715 17.3587C30.9564 17.4407 29.655 18.0855 28.063 18.9313C28.0401 18.9147 28.0152 18.9013 27.9888 18.8913C27.9888 18.8913 26.8991 18.5752 25.1851 18.067C25.7499 17.3655 25.9187 16.2134 25.5363 15.0593C25.0075 13.4692 23.6262 12.5005 22.4516 12.8936C21.5736 13.1863 21.0614 14.1618 21.0771 15.2974C20.2342 15.6954 19.4186 16.1285 19.1913 16.2963C19.1913 16.2963 6.80967 12.0137 6.71016 11.9639L6.66626 11.9483C10.7265 6.10577 17.4675 2.28357 25.1041 2.28357C37.3794 2.28357 47.3456 12.1581 47.5554 24.4178C46.2569 24.0383 41.4767 23.212 39.6232 22.6618Z" fill="#2A75DB"/>
<path d="M49.7318 26.1991L47.4344 27.0449C47.29 28.4798 47.0058 29.8972 46.5856 31.2768C46.2369 32.3574 45.8261 33.417 45.3555 34.4503C31.6481 30.4769 20.5502 34.0864 12.6122 43.3883C8.33247 40.5777 2.6499 34.2708 2.6499 24.8109V24.7338C2.6499 24.526 2.65478 24.3134 2.66063 24.1056C2.76007 20.7638 3.60393 17.4863 5.13072 14.512C4.58149 14.1852 3.16499 13.3287 3.16499 13.3287C3.16499 13.3287 2.36894 12.9385 2.76697 12.5766C3.08109 12.2839 4.23809 11.4986 5.06146 11.7512C5.09658 11.762 5.37168 11.8488 5.87897 12.0059C5.28388 12.1932 4.601 12.6088 4.39613 12.8C3.99518 13.1648 4.75026 13.6214 4.75026 13.6214C4.94829 13.7601 5.15451 13.8869 5.36778 14.0009C8.00859 15.4535 17.8821 21.176 20.4478 22.6442C20.4478 22.6442 15.5564 25.7211 15.1515 25.9211C13.7341 26.6371 13.5185 25.4792 13.4668 25.4567C13.3868 25.4362 12.66 23.1017 12.459 23.0432C12.2581 22.9847 11.4318 23.6285 11.3001 23.9632C11.2347 24.1388 11.0562 26.5971 10.9645 27.7005C9.79384 27.6566 8.66708 27.6127 8.47002 27.6029C8.20667 27.5931 7.94543 27.6534 7.713 27.7775C7.56314 27.8617 7.42857 27.9705 7.31497 28.0995C7.18327 28.2458 7.22717 28.476 7.47204 28.5521C7.58227 28.5775 9.65238 29.1375 10.8328 29.4506C10.823 29.6301 10.823 29.9042 10.823 29.9042C10.8006 30.5657 11.1655 30.9305 11.623 31.0076C17.088 31.55 22.4925 29.6087 30.5389 25.6284C35.6605 26.0528 45.614 26.7991 45.614 26.7991C45.614 26.7991 46.5496 26.4918 47.5066 26.1669C48.0656 25.9767 48.6323 25.7767 49.0226 25.6372C49.2159 25.5765 49.3949 25.4769 49.5484 25.3445C49.9249 25.4548 50.1513 25.5201 50.1737 25.5309C50.5249 25.6655 50.3376 25.9767 49.7318 26.1991Z" fill="#2A75DB"/>
<path d="M42.9069 9.63528V8.85484H42.6055V8.72217H43.3605V8.84996H43.0562V9.6304L42.9069 9.63528Z" fill="#2A75DB"/>
<path d="M43.4971 9.63528V8.72217H43.7293L43.9068 9.2753C43.9068 9.29091 43.9175 9.30945 43.9224 9.32993C43.9273 9.35042 43.9331 9.36896 43.938 9.38749C43.9425 9.40387 43.9461 9.42048 43.9487 9.43724H43.9595C43.9618 9.42113 43.9651 9.40517 43.9692 9.38944C43.9692 9.37091 43.978 9.3514 43.9829 9.33091C43.9878 9.31042 43.9926 9.29091 43.9985 9.27335L44.1761 8.72217H44.4034V9.63431H44.256V9.13483C44.256 9.10166 44.256 9.06654 44.256 9.03044C44.256 8.99435 44.256 8.96118 44.256 8.93289C44.256 8.9046 44.256 8.88606 44.256 8.87826H44.2453C44.2453 8.88801 44.2395 8.9046 44.2326 8.92801C44.2258 8.95142 44.219 8.97679 44.2121 9.00313C44.2053 9.02947 44.1985 9.05288 44.1926 9.07239L44.0131 9.63528H43.8814L43.6971 9.07434C43.6912 9.05678 43.6854 9.03727 43.6795 9.01386C43.6736 8.99044 43.6668 8.96801 43.661 8.94362C43.6551 8.91923 43.6493 8.89777 43.6454 8.87826H43.6346C43.6346 8.89972 43.6346 8.92606 43.6346 8.95728C43.6346 8.98849 43.6346 9.01873 43.6346 9.05483C43.6346 9.09093 43.6346 9.11434 43.6346 9.13873V9.63918L43.4971 9.63528Z" fill="#2A75DB"/>
</svg> 