<svg width="67" height="38" viewBox="0 0 67 38" fill="none" xmlns="http://www.w3.org/2000/svg">
<path d="M0 0.824219V15.2332H10.4255V12.5742H3.24647V0.824219H0Z" fill="#191919"/>
<path d="M16.5998 13.3526C18.5967 13.3526 19.197 11.6758 19.197 10.0229C19.197 8.34601 18.5967 6.66915 16.5998 6.66915C14.6152 6.66915 14.0149 8.34601 14.0149 10.0229C14.0149 11.6758 14.6152 13.3526 16.5998 13.3526ZM16.5998 4.51318C19.9688 4.51318 22.1372 6.6931 22.1372 10.0229C22.1372 13.3287 19.9688 15.5086 16.5998 15.5086C13.2553 15.5086 11.0869 13.3287 11.0869 10.0229C11.0869 6.6931 13.2553 4.51318 16.5998 4.51318Z" fill="#191919"/>
<path d="M28.8408 6.68125C27.1012 6.68125 26.3417 8.27427 26.3417 10.035C26.3417 11.7717 27.1012 13.3647 28.8408 13.3647C30.5805 13.3647 31.34 11.7717 31.34 10.035C31.3278 8.27427 30.5682 6.68125 28.8408 6.68125ZM23.5117 0.824219H26.4397V6.0704H26.4764C27.1992 5.00439 28.5223 4.51331 29.8454 4.51331C31.977 4.51331 34.268 6.19018 34.268 9.99905C34.268 13.8319 31.977 15.5087 29.8454 15.5087C28.2773 15.5087 26.9787 15.0416 26.3417 13.8918H26.3049V15.2332H23.524V0.824219H23.5117Z" fill="#191919"/>
<path d="M38.6145 0.824219H35.6865V15.2332H38.6145V0.824219Z" fill="#191919"/>
<path d="M47.0552 10.1309C46.5652 10.5501 45.5239 10.5741 44.6173 10.7418C43.7108 10.9214 42.8777 11.2209 42.8777 12.2749C42.8777 13.3409 43.723 13.6044 44.6786 13.6044C46.9695 13.6044 47.0552 11.8317 47.0552 11.1969V10.1309ZM40.2928 8.01087C40.452 5.32789 42.9145 4.52539 45.3034 4.52539C47.435 4.52539 49.9832 4.99252 49.9832 7.49583V12.9217C49.9832 13.8679 50.0812 14.8141 50.3507 15.2453H47.3738C47.2758 14.9219 47.19 14.5746 47.1655 14.2392C46.2344 15.1854 44.8746 15.5328 43.576 15.5328C41.5546 15.5328 39.9375 14.5387 39.9375 12.4066C39.9375 10.0471 41.7506 9.48411 43.576 9.23258C45.3769 8.96907 47.043 9.02896 47.043 7.85516C47.043 6.62147 46.1732 6.4418 45.1441 6.4418C44.0293 6.4418 43.3065 6.88498 43.2085 8.01087H40.2928Z" fill="#191919"/>
<path d="M63.6317 15.2333H60.618L58.7191 8.22637H58.6823L56.8569 15.2333H53.831L50.4375 4.80078H53.537L55.4971 11.8795H55.5339L57.3102 4.80078H60.1647L61.9778 11.8676H62.0268L63.9869 4.80078H67.0007L63.6317 15.2333Z" fill="#191919"/>
<path d="M8.71035 18.9406C9.75168 19.276 10.597 19.8868 11.2463 20.7851C11.7608 21.5038 12.1161 22.2943 12.2999 23.1327C12.4836 23.9712 12.5816 24.7737 12.5816 25.5402C12.5816 27.4686 12.1896 29.1096 11.3933 30.451C10.3152 32.2597 8.66135 33.158 6.4072 33.158H0V18.6172H6.4072C7.32601 18.6411 8.09781 18.737 8.71035 18.9406ZM3.01371 21.1445V30.6187H5.88041C7.35051 30.6187 8.36733 29.9121 8.94312 28.4987C9.26165 27.7202 9.4209 26.7979 9.4209 25.7319C9.4209 24.2586 9.18814 23.1208 8.71035 22.3302C8.23257 21.5397 7.28926 21.1445 5.88041 21.1445H3.01371Z" fill="#191919"/>
<path d="M17.2116 21.1199H14.2959V18.5327H17.2116V21.1199ZM14.3082 22.4015H17.2239V33.1454H14.3082V22.4015Z" fill="#191919"/>
<path d="M25.0184 22.3895C25.7167 22.6769 26.2802 23.192 26.709 23.9466V22.4015H29.5144V32.5944C29.5144 33.9838 29.2817 35.0258 28.8039 35.7325C27.9831 36.9422 26.415 37.5411 24.0873 37.5411C22.6784 37.5411 21.5391 37.2776 20.6571 36.7386C19.775 36.1996 19.285 35.3971 19.187 34.3192H22.3109C22.3967 34.6426 22.5192 34.8821 22.7029 35.0258C23.0092 35.2774 23.536 35.4091 24.2711 35.4091C25.3001 35.4091 25.9984 35.0737 26.3415 34.391C26.5742 33.9598 26.6845 33.2292 26.6845 32.1991V31.5044C26.415 31.9596 26.1087 32.3069 25.8024 32.5345C25.2266 32.9657 24.4916 33.1693 23.5728 33.1693C22.1639 33.1693 21.0368 32.6902 20.1915 31.72C19.3462 30.7498 18.9297 29.4443 18.9297 27.7794C18.9297 26.1864 19.334 24.8449 20.1425 23.7549C20.9511 22.665 22.1027 22.126 23.5973 22.126C24.1363 22.1499 24.6141 22.2338 25.0184 22.3895ZM25.9984 30.0911C26.464 29.6 26.6967 28.8095 26.6967 27.7195C26.6967 26.7014 26.4762 25.9229 26.0352 25.3959C25.5941 24.8688 25.0061 24.5934 24.2711 24.5934C23.2665 24.5934 22.5804 25.0605 22.1884 25.9828C21.9924 26.4738 21.8821 27.0847 21.8821 27.8034C21.8821 28.4262 21.9924 28.9772 22.2007 29.4682C22.5927 30.3785 23.2787 30.8337 24.2833 30.8337C24.9693 30.8337 25.5329 30.5941 25.9984 30.0911Z" fill="#191919"/>
<path d="M34.7321 21.1199H31.8164V18.5327H34.7321V21.1199ZM31.8164 22.4015H34.7321V33.1454H31.8164V22.4015Z" fill="#191919"/>
<path d="M35.9688 24.5093V22.509H37.5001V19.5146H40.3423V22.509H42.1309V24.5093H40.3423V30.1867C40.3423 30.6298 40.4036 30.9053 40.5138 31.0131C40.6241 31.1209 40.9794 31.1808 41.5674 31.1808C41.6531 31.1808 41.7512 31.1808 41.8492 31.1808C41.9472 31.1808 42.0452 31.1688 42.1309 31.1688V33.2649L40.7711 33.3128C39.4112 33.3607 38.4924 33.1332 37.9901 32.6181C37.6716 32.2947 37.5124 31.8036 37.5124 31.1329V24.5093H35.9688Z" fill="#191919"/>
<path d="M47.9117 26.6175C48.4507 26.5577 48.8305 26.4738 49.0633 26.366C49.4798 26.1983 49.6881 25.9348 49.6881 25.5635C49.6881 25.1203 49.5288 24.8209 49.2103 24.6532C48.8918 24.4855 48.4262 24.4017 47.8137 24.4017C47.1276 24.4017 46.6376 24.5694 46.3558 24.8928C46.1476 25.1323 46.0128 25.4677 45.9516 25.8749H43.1829C43.2441 24.9407 43.5136 24.1621 43.9914 23.5633C44.751 22.617 46.0618 22.1499 47.9239 22.1499C49.1368 22.1499 50.2026 22.3775 51.1459 22.8446C52.0892 23.3117 52.5548 24.1861 52.5548 25.4797V30.4025C52.5548 30.7378 52.567 31.157 52.5793 31.6481C52.6038 32.0194 52.6528 32.271 52.7508 32.4027C52.8488 32.5345 52.9835 32.6423 53.1796 32.7261V33.1453H50.0556C49.9698 32.9297 49.9086 32.7261 49.8718 32.5345C49.8351 32.3428 49.8106 32.1272 49.7861 31.8877C49.3818 32.3069 48.9285 32.6662 48.4017 32.9657C47.7769 33.313 47.0786 33.4927 46.2946 33.4927C45.29 33.4927 44.4692 33.2172 43.8199 32.6542C43.1706 32.1033 42.8398 31.3128 42.8398 30.2947C42.8398 28.9771 43.3666 28.0189 44.408 27.432C44.9837 27.1086 45.8291 26.881 46.9439 26.7373L47.9117 26.6175ZM49.6636 27.9231C49.4798 28.0309 49.296 28.1267 49.1123 28.1986C48.9285 28.2704 48.6712 28.3303 48.3405 28.3902L47.6912 28.51C47.0786 28.6178 46.6376 28.7376 46.3681 28.8933C45.9148 29.1448 45.6943 29.5521 45.6943 30.091C45.6943 30.5701 45.8291 30.9175 46.1108 31.1331C46.3926 31.3487 46.7234 31.4565 47.1154 31.4565C47.7402 31.4565 48.316 31.2768 48.855 30.9295C49.3818 30.5701 49.6636 29.9234 49.6758 28.9891V27.9231H49.6636Z" fill="#191919"/>
<path d="M57.5659 33.146H54.6992V18.6172H57.5659V33.146Z" fill="#191919"/>
</svg>
