<svg version="1.2" xmlns="http://www.w3.org/2000/svg" viewBox="0 0 1511 731" width="1511" height="731">
	<title>PAR-Logo-NB-blue-svg</title>
	<style>
		.s0 { fill: #2f3452 } 
	</style>
	<g id="Layer">
		<path id="Layer" fill-rule="evenodd" class="s0" d="m759.5 1h178.5v730h-179v-105.4h-246l-73.5 105.4h-187.6l186.2-268.3c-42.9 24.7-99.5 39.3-172.5 39.3h-86.8v229h-178.4v-730h246.5c78-0.9 136.4 10 174.8 27.8 79 36.5 128.3 120.5 128.3 219 0 21.9-1.9 42.9-6 63.5zm-388 250c0-59.3-36.5-85.8-119.6-85.8h-73v173.4h79.9c74.8 0 112.7-26 112.7-87.6zm387.6 21.4l-143.4 204.9h143.4z"/>
		<path id="Layer" fill-rule="evenodd" class="s0" d="m1510.4 731h-201.3l-170.7-238.6v238.6h-178.5v-730h267.5c0 0 20.5 0 39.2 1.4 25.6 2.7 45.7 6.8 67.6 12.3 24.2 6.4 46.5 15.5 67.5 29.6 39.3 27 67.1 63 84.5 106.8 16.4 41.1 21.9 84.9 17.8 128.7-1.8 21.4-6.9 41.9-14.2 62-11.8 33.3-30.1 62.1-55.7 86.2-30.1 28.3-65.7 45.7-106.3 53.4l-4.1 0.9zm-189-430.7c4.6-15 6.4-30.5 5-46.5-1.3-14.1-4.5-27.4-11.8-39.7-10.5-17.8-26.1-30.1-44.8-38.3-18.7-8.2-39.2-11-59.8-11h-71.6v203.1c0 0 58.4 1.3 89-0.9 16.4-1 26-4.2 38.3-8.7 27.4-10.5 47-29.2 55.7-58z"/>
		<g id="Layer">
		</g>
	</g>
</svg> 